<svg xmlns="http://www.w3.org/2000/svg" viewBox="0 0 32 32" fill="none">
  <rect width="32" height="32" rx="16" fill="#F7F1E8"/>
  <rect x="0.5" y="0.5" width="31" height="31" rx="15.5" stroke="#C4A574" stroke-opacity="0.45"/>
  <!-- Resume page -->
  <path
    d="M9.5 7h8.2c.5 0 .9.2 1.2.6l2.9 3.5c.3.3.4.7.4 1.1V24c0 .9-.7 1.6-1.6 1.6H9.5c-.9 0-1.6-.7-1.6-1.6V8.6c0-.9.7-1.6 1.6-1.6Z"
    stroke="#2C2A26"
    stroke-width="1.5"
    stroke-linejoin="round"
  />
  <path
    d="M18 7v3.4c0 .6.5 1.1 1.1 1.1H22"
    stroke="#2C2A26"
    stroke-width="1.5"
    stroke-linecap="round"
    stroke-linejoin="round"
  />
  <path
    d="M11.5 15h7M11.5 18h9M11.5 21h6"
    stroke="#2C2A26"
    stroke-width="1.5"
    stroke-linecap="round"
  />
  <!-- Gold spark -->
  <path
    d="M24.2 11.2 25 9.2l.8 2 2 0.8-2 0.8-.8 2-.8-2-2-.8 2-.8Z"
    fill="#B8956A"
  />
</svg>
